<?xml version="1.0" standalone="no"?><!DOCTYPE svg PUBLIC "-//W3C//DTD SVG 1.1//EN" "http://www.w3.org/Graphics/SVG/1.1/DTD/svg11.dtd"><svg t="1675914273096" class="icon" viewBox="0 0 1024 1024" version="1.1" xmlns="http://www.w3.org/2000/svg" p-id="2417" xmlns:xlink="http://www.w3.org/1999/xlink" width="200" height="200"><path d="M1001.7 969.6H890.4V399.4c0-27.7-17.4-52.8-43.3-62.5L580 236.7c-14.9-5.6-31.1-5.5-45.7-0.4V76.6c0-21.9-10.7-42.4-28.7-54.9s-41-15.3-61.5-7.6L176.9 114.3c-25.9 9.7-43.3 34.9-43.3 62.5v792.8H22.3C10 969.6 0 979.6 0 991.9s10 22.3 22.3 22.3H1001.8c12.3 0 22.3-10 22.3-22.3s-10.1-22.3-22.4-22.3zM178.1 176.8c0-9.2 5.8-17.6 14.4-20.8L459.7 55.8c7-2.6 14.4-1.7 20.5 2.5s9.6 10.9 9.6 18.3v893H178.1V176.8z m356.2 792.8V299.3c0-7.4 3.5-14.1 9.6-18.3 6.1-4.2 13.6-5.2 20.5-2.5l267.1 100.2c8.6 3.2 14.4 11.6 14.4 20.8v570.2H534.3z" p-id="2418"></path><path d="M391.8 346.3H258.2c-12.3 0-22.3 10-22.3 22.3s10 22.3 22.3 22.3h133.6c12.3 0 22.3-10 22.3-22.3s-10-22.3-22.3-22.3zM748 479.9H614.4c-12.3 0-22.3 10-22.3 22.3s10 22.3 22.3 22.3H748c12.3 0 22.3-10 22.3-22.3s-10-22.3-22.3-22.3zM748 613.4H614.4c-12.3 0-22.3 10-22.3 22.3s10 22.3 22.3 22.3H748c12.3 0 22.3-10 22.3-22.3s-10-22.3-22.3-22.3zM391.8 613.4H258.2c-12.3 0-22.3 10-22.3 22.3s10 22.3 22.3 22.3h133.6c12.3 0 22.3-10 22.3-22.3s-10-22.3-22.3-22.3z" p-id="2419"></path></svg>